# xmcd
#
# Track frame offsets:
#	150
#	12830
#	26565
#	38377
#	53375
#	66815
#	79762
#	90162
#	104130
#	117562
#	127987
#	140535
#	157962
#	166942
#	182310
#	194782
#	212317
#	227647
#	236137
#	246787
#	260465
#	273980
#	282225
#	294912
#	301400
#
# Disc length: 4226 seconds
# Revision: 0
# Processed by: cddbd v1.5.2PL0 Copyright (c) Steve Scherf et al.
# Submitted via: dBpowerAMP V12.0
#
DISCID=4c108019
DTITLE=Buizinho Barrica - Bicho Terra - Bem Maranhão
DYEAR=1992
DGENRE=Brazil
TTITLE0=Tainahakã
TTITLE1=Voa Maracanã
TTITLE2=Raio de Luz
TTITLE3=Coxinho
TTITLE4=Lua Prata
TTITLE5=Lumiou
TTITLE6=Passeio Na Roça
TTITLE7=Lá Vai Boi Vaquejadô
TTITLE8=Fogueirinha De São João
TTITLE9=Tapuitapera
TTITLE10=Segredando
TTITLE11=Rastapé - Buraquinho
TTITLE12=Leonardo
TTITLE13=Vou Passear - Currupira
TTITLE14=Mata De Bicho
TTITLE15=Ianomani
TTITLE16=Vou Embora - Tronco De Pau
TTITLE17=Crioula
TTITLE18=É Carnaval
TTITLE19=Uirá
TTITLE20=Madre Deus
TTITLE21=Saravá - Xangô
TTITLE22=Perequeté
TTITLE23=Flor do Poeta
TTITLE24=Mata Virgem
EXTD=
EXTT0=
EXTT1=
EXTT2=
EXTT3=
EXTT4=
EXTT5=
EXTT6=
EXTT7=
EXTT8=
EXTT9=
EXTT10=
EXTT11=
EXTT12=
EXTT13=
EXTT14=
EXTT15=
EXTT16=
EXTT17=
EXTT18=
EXTT19=
EXTT20=
EXTT21=
EXTT22=
EXTT23=
EXTT24=
PLAYORDER=
